<?xml version="1.0" encoding="utf-8"?>
<!-- Generator: Adobe Illustrator 21.0.0, SVG Export Plug-In . SVG Version: 6.00 Build 0)  -->
<svg version="1.1" id="Layer_1" xmlns="http://www.w3.org/2000/svg" xmlns:xlink="http://www.w3.org/1999/xlink" x="0px" y="0px"
	 viewBox="0 0 22.6 16.8" style="enable-background:new 0 0 22.6 16.8;" xml:space="preserve">
<style type="text/css">
	.st0{fill:#FFC122;}
</style>
<title>Artboard 1</title>
<path class="st0" d="M14.8,0.2c-0.3-0.3-0.9-0.3-1.2,0c-0.3,0.3-0.3,0.9,0,1.2l0,0l6.1,6.1H0.8C0.4,7.6,0,8,0,8.4l0,0
	c0,0.5,0.4,0.8,0.8,0.9h18.8l-6.1,6.1c-0.3,0.3-0.3,0.9,0,1.2c0.3,0.3,0.9,0.3,1.2,0c0,0,0,0,0,0L22.4,9c0.3-0.3,0.3-0.8,0-1.2
	c0,0,0,0,0,0L14.8,0.2z"/>
</svg>
